<?xml version="1.0" encoding="UTF-8" ?>
<svg xmlns="http://www.w3.org/2000/svg" xmlns:xlink="http://www.w3.org/1999/xlink" version="1.1" id="Layer_1" x="0px" y="0px" style="enable-background:new 0 0 833 426;" xml:space="preserve" viewBox="0.1 74.3 832.9 277.5">
<title>webscraper.io logo</title>
<style type="text/css">
	.st0{fill:#2F3F53;}
	.st1{fill:#445463;}
	.st2{fill:#465163;}
	.st3{fill:#00AEBE;}
</style>
<g>
	<path class="st0" d="M264.2,294.8c7.3,4.7,17.7,8.3,28.7,8.3c16.5,0,26.2-8.7,26.2-21.5c0-11.6-6.6-18.4-23.5-24.7   c-20.4-7.6-33-18.3-33-35.8c0-19.5,16.3-34,40.5-34c12.7,0,22.1,3,27.5,6l-4.4,13.3c-4-2.4-12.3-5.9-23.5-5.9   c-17.1,0-23.5,10.1-23.5,18.7c0,11.9,7.7,17.6,24.8,24.1c21.2,8.3,31.8,18.4,31.8,36.9c0,19.3-14.1,36.3-43.6,36.3   c-12.1,0-25.2-3.7-31.9-8.3L264.2,294.8z"/>
	<path class="st0" d="M422.2,311.5c-4.3,2-13.7,5.2-25.8,5.2c-27.1,0-44.8-18.4-44.8-46c0-27.7,18.8-47.9,48.3-47.9   c9.7,0,18.1,2.4,22.7,4.8l-3.7,12.6c-4-2-10-4.3-18.8-4.3c-20.7,0-31.8,15.4-31.8,34c0,20.9,13.4,33.6,31.2,33.6   c9.3,0,15.4-2.1,20-4.3L422.2,311.5z"/>
	<path class="st0" d="M441.2,252.7c0-10.6-0.1-19.7-0.7-28h14.3l0.7,17.9h0.5c4.1-12.1,14.1-19.7,24.9-19.7c1.6,0,3,0.1,4.4,0.3   v15.4c-1.6-0.3-3.4-0.3-5.6-0.3c-11.6,0-19.7,8.6-21.9,20.9c-0.3,2.1-0.5,5-0.5,7.7v47.9h-16.4v-62.1L441.2,252.7L441.2,252.7z"/>
	<path class="st0" d="M564,293.1c0,7.9,0.3,15.4,1.3,21.6h-14.7l-1.3-11.3h-0.5c-5,7.2-14.7,13.4-27.5,13.4   c-18.1,0-27.5-12.9-27.5-25.9c0-21.9,19.2-33.6,54-33.5v-1.9c0-7.3-2-20.9-20.4-20.7c-8.5,0-17.3,2.4-23.5,6.6l-3.7-10.9   c7.4-4.7,18.4-7.9,29.8-7.9c27.5,0,34.1,18.7,34.1,36.6v33.6H564L564,293.1L564,293.1z M548.3,268.8c-17.8-0.3-37.9,2.9-37.9,20.2   c0,10.7,7.1,15.6,15.1,15.6c12,0,19.4-7.6,22.1-15c0.5-1.9,0.7-3.7,0.7-5.2L548.3,268.8L548.3,268.8z"/>
	<path class="st0" d="M590.4,253.9c0-11.6-0.3-20.9-0.7-29.3h14.4l0.9,15.4h0.3c6.4-10.9,17.3-17.3,31.9-17.3   c21.9,0,38.2,18.4,38.2,45.6c0,32.3-19.8,48.5-41.1,48.5c-12,0-22.3-5.2-27.6-14.1h-0.3v49.1h-16.3V254h0.2L590.4,253.9   L590.4,253.9z M606.6,278.1c0,2.4,0.1,4.7,0.7,6.6c3,11.3,12.8,19.2,24.4,19.2c17.3,0,27.2-14.1,27.2-34.9   c0-17.9-9.4-33.3-26.8-33.3c-11.1,0-21.8,7.9-24.7,20c-0.5,2-1,4.4-1,6.4L606.6,278.1L606.6,278.1z"/>
	<path class="st0" d="M705,272.5c0.3,22.2,14.3,31.3,30.8,31.3c11.8,0,18.8-2,24.8-4.7l3,11.9c-5.7,2.7-15.7,5.7-30.1,5.7   c-27.6,0-44.2-18.4-44.2-45.6c0-27.2,15.8-48.5,42-48.5c29.4,0,37.1,25.7,37.1,42.2c0,3.4-0.1,5.7-0.5,7.7H705z M753,260.9   c0.1-10.1-4.3-26.5-22.7-26.5c-16.8,0-23.7,15-25.1,26.5H753z"/>
	<path class="st0" d="M788.9,252.7c0-10.6-0.1-19.7-0.7-28h14.3l0.7,17.9h0.5c4.1-12.1,14.1-19.7,24.9-19.7c1.6,0,3,0.1,4.4,0.3   v15.4c-1.6-0.3-3.4-0.3-5.6-0.3c-11.6,0-19.7,8.6-21.9,20.9c-0.3,2.1-0.5,5-0.5,7.7v47.9h-16.3L788.9,252.7L788.9,252.7   L788.9,252.7z"/>
	<path class="st1" d="M325.9,206.5L294.1,81.1h17.1l14.8,63.5c3.7,15.6,7.1,31.3,9.3,43.3h0.3c2-12.6,5.9-27.3,10.1-43.6L362.5,81   h16.9l15.1,63.6c3.6,14.9,6.7,29.9,8.7,42.9h0.3c2.7-13.7,6-27.7,10-43.3L430.1,81h16.5l-35.5,125.4h-16.8l-15.7-65.3   c-4-15.9-6.4-28.3-8.3-41h-0.3c-2,12.6-5,24.7-9.7,41l-17.8,65.3L325.9,206.5L325.9,206.5L325.9,206.5z"/>
	<path class="st2" d="M464.8,164.4c0.3,22.2,14.3,31.3,30.8,31.3c11.8,0,18.8-2,24.8-4.7l3,11.9c-5.7,2.7-15.7,5.7-30.1,5.7   c-27.6,0-44.2-18.4-44.2-45.6s15.8-48.5,42-48.5c29.4,0,37.1,25.7,37.1,42.2c0,3.4-0.1,5.7-0.5,7.7H464.8L464.8,164.4z    M512.7,152.7c0.1-10.1-4.3-26.5-22.7-26.5c-16.8,0-23.7,15-24.9,26.5H512.7z"/>
	<path class="st2" d="M548.7,74.3H565v56.5h0.3c5.7-10,16.3-16.4,30.7-16.4c22.5,0,37.9,18.6,37.9,45.8c0,32.2-20.4,48.3-40.5,48.3   c-13,0-23.4-5-30.4-16.9h-0.3l-0.9,14.7h-14c0.3-6,0.7-15.2,0.7-23.3L548.7,74.3L548.7,74.3z M564.7,170.4c0,2,0.1,4.1,0.7,5.9   c3,11.3,12.7,19.2,24.4,19.2c17.3,0,27.2-14,27.2-34.7c0-18-9.3-33.5-26.9-33.5c-10.8,0-21.4,7.9-24.7,20c-0.5,2-0.9,4.3-0.9,7   L564.7,170.4L564.7,170.4z"/>
	<g>
		<path class="st3" d="M237.9,195.2c0-0.1,0-0.1,0-0.2c0-0.2-0.1-0.3-0.1-0.4c0-0.1,0-0.1,0-0.2c-0.1-0.2-0.1-0.4-0.2-0.5    c0,0,0,0,0-0.1c-0.1-0.2-0.2-0.4-0.3-0.5c0,0,0,0,0-0.1l-57-98.7c0,0,0,0,0-0.1c-0.1-0.2-0.2-0.3-0.4-0.5c0,0,0,0,0,0    c-0.1-0.2-0.2-0.3-0.4-0.4c0,0-0.1-0.1-0.1-0.1c-0.1-0.1-0.2-0.2-0.3-0.3c-0.1,0-0.1-0.1-0.1-0.1c-0.2-0.1-0.3-0.2-0.5-0.3    c0,0,0,0,0,0h0c-0.2-0.1-0.4-0.2-0.5-0.3c0,0-0.1,0-0.1-0.1c-0.1-0.1-0.3-0.1-0.4-0.1c-0.1,0-0.1,0-0.1,0    c-0.2-0.1-0.4-0.1-0.5-0.1c0,0,0,0,0,0c-0.2,0-0.4,0-0.6,0c0,0,0,0,0,0H62c0,0,0,0,0,0c-0.2,0-0.4,0-0.6,0h-0.1    c-0.2,0-0.4,0.1-0.5,0.1c0,0-0.1,0-0.1,0c-0.1,0-0.3,0.1-0.4,0.1c-0.1,0-0.1,0-0.2,0.1c-0.2,0.1-0.4,0.2-0.5,0.3c0,0,0,0,0,0    c-0.2,0.1-0.4,0.2-0.5,0.4c-0.1,0.1-0.2,0.2-0.3,0.2c-0.1,0.1-0.2,0.1-0.2,0.2c-0.1,0.1-0.2,0.2-0.3,0.3c0,0.1-0.1,0.1-0.1,0.2    c-0.1,0.1-0.2,0.2-0.3,0.4c0,0-0.1,0.1-0.1,0.1l0,0c0,0,0,0,0,0l-40.1,69.5c-1.4,2.4-0.5,5.5,1.8,6.8s5.4,0.6,6.8-1.8L62,107    l11.6,20.1l-36.8,63.7H4.9c-0.1,0-0.2,0-0.3,0c-0.1,0-0.1,0-0.2,0c-0.1,0-0.2,0-0.3,0c-0.1,0-0.1,0-0.2,0c-0.1,0-0.2,0.1-0.2,0.1    c-0.1,0-0.2,0-0.2,0.1c-0.1,0-0.1,0-0.2,0.1c-0.1,0-0.2,0.1-0.3,0.1c-0.1,0-0.1,0.1-0.2,0.1c-0.1,0.1-0.2,0.1-0.3,0.1    c0,0,0,0-0.1,0s-0.1,0-0.1,0.1c-0.1,0.1-0.3,0.2-0.4,0.3c-0.1,0-0.1,0.1-0.1,0.1c-0.1,0.1-0.3,0.2-0.4,0.4c0,0-0.1,0.1-0.1,0.1    c-0.1,0.1-0.2,0.2-0.3,0.3c0,0.1-0.1,0.1-0.1,0.2c-0.1,0.1-0.2,0.2-0.2,0.4c0,0.1-0.1,0.1-0.1,0.1c-0.1,0.2-0.2,0.4-0.2,0.5    c0,0,0,0.1,0,0.1c-0.1,0.2-0.1,0.3-0.2,0.5c0,0,0,0.1,0,0.1c0,0.1-0.1,0.3-0.1,0.4c0,0.1,0,0.1,0,0.2c0,0.2,0,0.4,0,0.5v0.1    c0,0.2,0,0.3,0,0.5c0,0.1,0,0.1,0,0.2c0,0.1,0.1,0.3,0.1,0.4c0,0.1,0,0.1,0.1,0.2c0,0.2,0.1,0.3,0.2,0.5c0,0,0,0.1,0,0.1    c0.1,0.2,0.2,0.4,0.3,0.5c0,0,0,0,0,0l57,98.7c0.9,1.5,2.5,2.5,4.3,2.5h114c0,0,0,0,0,0c0.2,0,0.4,0,0.6,0c0,0,0,0,0,0    c0.2,0,0.4-0.1,0.5-0.1c0.1,0,0.1,0,0.1,0c0.1-0.1,0.3-0.1,0.4-0.2c0,0,0.1,0,0.1-0.1c0.2-0.1,0.4-0.2,0.5-0.3    c0.2-0.1,0.3-0.2,0.5-0.3c0,0,0.1-0.1,0.1-0.1c0.1-0.1,0.2-0.2,0.3-0.3c0,0,0.1-0.1,0.1-0.1c0.1-0.1,0.2-0.3,0.4-0.4    c0,0,0,0,0-0.1c0.1-0.2,0.2-0.3,0.3-0.5c0,0,0,0,0,0l57-98.7c0,0,0,0,0-0.1c0.1-0.2,0.2-0.4,0.3-0.5c0,0,0,0,0,0    c0.1-0.2,0.1-0.3,0.2-0.5c0-0.1,0-0.1,0-0.2c0-0.1,0.1-0.3,0.1-0.5c0,0,0-0.1,0-0.1c0-0.2,0-0.4,0-0.6    C237.9,195.6,237.9,195.4,237.9,195.2z M70.6,102h96.7l-11.5,20.1H82.2L70.6,102z M110.3,190.8H83.1l13.6-23.6L110.3,190.8z     M105.4,162.2h27.5L119.1,186L105.4,162.2z M110.7,200.8l-13.8,24l-13.8-24H110.7z M100,239.3l5.7-10l13.4-23.3l30.8,53.4H88.5    L100,239.3z M127.6,200.8h27.3l-13.6,23.6L127.6,200.8z M147,234.4l19.4-33.6h23.2l-31,53.7L147,234.4z M127.9,190.8l13.4-23.4    l13.5,23.4H127.9z M138.6,152.2h-39L88,132.1h62.1L138.6,152.2z M79.3,137.1l11.6,20.1l-19.4,33.6H48.4L79.3,137.1z M71.5,200.8    l19.6,34l-11.6,20.1l-31.3-54.1H71.5z M64.9,289.5l-51.2-88.7h23.2l37.5,64.7l0.4,0.7c1.9,2.6,2.9,2.8,6.2,3.2l74.9,0.1l11.6,20.1    H64.9z M176,284.5l-11.6-20.1l36.8-63.7h23.2L176,284.5z M201.2,190.8l-21.6-37.5c-1.4-2.4-4.4-3.2-6.8-1.8    c-2.4,1.4-3.2,4.4-1.8,6.8l18.7,32.5h-23.2l-19.3-33.4l28.8-50.3l48.3,83.7H201.2z"/>
	</g>
</g>
</svg>